<svg version="1.1" xmlns="http://www.w3.org/2000/svg" xmlns:xlink="http://www.w3.org/1999/xlink" viewBox="0 0 172 172"><g fill="none" fill-rule="nonzero" stroke="none" stroke-width="1" stroke-linecap="butt" stroke-linejoin="miter" stroke-miterlimit="10" stroke-dasharray="" stroke-dashoffset="0" font-family="none" font-weight="none" font-size="none" text-anchor="none" style="mix-blend-mode: normal"><path d="M0,172v-172h172v172z" fill="none"></path><g fill="#000000"><path d="M85.54333,0.08923c-2.31138,0.10726 -4.5106,1.02747 -6.2096,2.59827c-18.15675,17.89606 -55.14624,78.93994 -55.14624,107.5c0,1.88125 0.08264,3.76208 0.25195,5.61646l5.35401,-0.48291c-0.15319,-1.69313 -0.23096,-3.41892 -0.23096,-5.13354c0,-26.82931 36.36691,-86.74003 53.54004,-103.65247c1.64081,-1.49385 4.14887,-1.49385 5.78967,0c8.42974,9.17665 15.92553,19.16927 22.37659,29.8302l4.5404,-2.87646c-6.65354,-11.02284 -14.40751,-21.34269 -23.14294,-30.80127c-1.93058,-1.78498 -4.49648,-2.72095 -7.12293,-2.59827zM119.17383,38.91626l-4.59289,2.79248c1.06604,1.76479 2.12395,3.54659 3.17566,5.33826l4.64014,-2.71899c-1.075,-1.8275 -2.1479,-3.62904 -3.2229,-5.41174zM125.49365,49.75024l-4.69262,2.62451c13.74925,24.56106 21.63647,45.63299 21.63647,57.81274c0.03295,29.19777 -22.20968,53.60022 -51.28556,56.26555c-29.07589,2.66532 -55.38437,-17.28655 -60.66036,-46.00371l-5.28577,0.97632c5.4046,29.3202 30.98004,50.59627 60.79419,50.57434c34.12275,-0.03703 61.77547,-27.68975 61.8125,-61.8125c0,-17.89606 -13.97685,-45.54851 -22.31885,-60.43726zM38.86902,96.75c-1.2554,-0.00209 -2.34499,0.86523 -2.62451,2.08911c-3.50286,15.14928 0.10571,31.06884 9.79849,43.227c9.69278,12.15816 24.40807,19.22316 39.957,19.18389c15.54893,0.03927 30.26422,-7.02573 39.957,-19.18389c9.69278,-12.15816 13.30135,-28.07772 9.79849,-43.227c-0.27952,-1.22389 -1.36912,-2.0912 -2.62451,-2.08911h-68.63098v5.375h66.44214c0.48922,2.65978 0.73867,5.35811 0.74536,8.0625c0,25.23251 -20.45499,45.6875 -45.6875,45.6875c-25.23251,0 -45.6875,-20.45499 -45.6875,-45.6875c0.00669,-2.70439 0.25615,-5.40272 0.74536,-8.0625h7.31714v-5.375zM53.75,96.75v5.375h5.375v-5.375zM74.91406,104.81775c-4.40371,0.15668 -7.86589,3.81985 -7.77408,8.22539c0.09181,4.40554 3.7036,7.92129 8.11001,7.89436c4.4528,0 8.0625,-3.6097 8.0625,-8.0625c0.00048,-2.19689 -0.89555,-4.29885 -2.48085,-5.81975c-1.58531,-1.5209 -3.7226,-2.32903 -5.91758,-2.2375zM100.22485,108.28735l-32.25,32.25l3.80029,3.80029l32.25,-32.25zM75.25,110.1875c1.48427,0 2.6875,1.20323 2.6875,2.6875c0,1.48427 -1.20323,2.6875 -2.6875,2.6875c-1.48427,0 -2.6875,-1.20323 -2.6875,-2.6875c0,-1.48427 1.20323,-2.6875 2.6875,-2.6875zM96.41406,131.69275c-4.40371,0.15668 -7.86589,3.81985 -7.77408,8.22539c0.09181,4.40554 3.7036,7.92129 8.11001,7.89436c4.4528,0 8.0625,-3.6097 8.0625,-8.0625c0.00048,-2.19689 -0.89555,-4.29885 -2.48085,-5.81975c-1.58531,-1.5209 -3.7226,-2.32903 -5.91758,-2.2375zM96.75,137.0625c1.48427,0 2.6875,1.20323 2.6875,2.6875c0,1.48427 -1.20323,2.6875 -2.6875,2.6875c-1.48427,0 -2.6875,-1.20323 -2.6875,-2.6875c0,-1.48427 1.20323,-2.6875 2.6875,-2.6875z"></path></g></g></svg>