<svg version="1.1" xmlns="http://www.w3.org/2000/svg" xmlns:xlink="http://www.w3.org/1999/xlink" viewBox="0 0 172 172"><g fill="none" fill-rule="nonzero" stroke="none" stroke-width="1" stroke-linecap="butt" stroke-linejoin="miter" stroke-miterlimit="10" stroke-dasharray="" stroke-dashoffset="0" font-family="none" font-weight="none" font-size="none" text-anchor="none" style="mix-blend-mode: normal"><path d="M0,172v-172h172v172z" fill="none"></path><g><g><path d="M90.78375,4.6225c-2.66721,-2.58039 -6.90029,-2.58039 -9.5675,0c-17.22688,16.95813 -54.34125,77.77625 -54.34125,105.565c0,32.65384 26.47116,59.125 59.125,59.125c32.65384,0 59.125,-26.47116 59.125,-59.125c0,-27.78875 -37.11438,-88.60687 -54.34125,-105.565z" fill="#5ec8e6"></path><path d="M96.75,142.4375c-32.65384,0 -59.125,-26.47116 -59.125,-59.125c0.18536,-5.46 1.1204,-10.86861 2.77887,-16.07394c-7.88513,16.297 -13.52887,32.12906 -13.52887,42.94894c0.05438,31.08677 24.17271,56.82197 55.19063,58.89054c31.01792,2.06857 58.34001,-20.23609 62.52187,-51.04035c-11.10954,15.33499 -28.9012,24.40973 -47.8375,24.39981z" fill="#26a5c9"></path><path d="M94.0625,35.131c-1.80948,0.00151 -3.49829,-0.90753 -4.4935,-2.41875c-0.62887,-0.95675 -1.26044,-1.88125 -1.88125,-2.82188c-1.13062,-1.58829 -1.31256,-3.66427 -0.47544,-5.42501c0.83712,-1.76074 2.56203,-2.93013 4.50758,-3.05589c1.94555,-0.12576 3.80665,0.81184 4.86349,2.45015c0.65575,0.96213 1.3115,1.94754 1.96725,2.95625c1.07832,1.65026 1.16674,3.7584 0.2304,5.49316c-0.93634,1.73476 -2.7472,2.81776 -4.71852,2.82196z" fill="#a4eaff"></path><path d="M124.50113,94.0625c-2.29384,-0.00164 -4.33388,-1.4588 -5.07937,-3.62812c-5.38303,-14.60827 -12.11659,-28.68272 -20.11325,-42.04056c-1.49614,-2.56407 -0.63041,-5.85552 1.93366,-7.35166c2.56407,-1.49614 5.85552,-0.63041 7.35166,1.93366c8.34124,13.97231 15.36782,28.68855 20.98938,43.95944c0.56648,1.64274 0.30385,3.45799 -0.70498,4.87281c-1.00884,1.41483 -2.63941,2.25466 -4.37708,2.25444z" fill="#a4eaff"></path><path d="M53.75,139.75c-1.08681,-0.00023 -2.06651,-0.65502 -2.48238,-1.65912c-0.41587,-1.0041 -0.18606,-2.15984 0.58232,-2.92845l64.5,-64.5c1.05452,-1.01849 2.73073,-1.00392 3.76739,0.03274c1.03666,1.03666 1.05123,2.71287 0.03274,3.76739l-64.5,64.5c-0.50389,0.50404 -1.18735,0.78729 -1.90006,0.78744z" fill="#ffffff"></path><path d="M104.8125,139.75c-7.42133,0 -13.4375,-6.01617 -13.4375,-13.4375c0,-7.42133 6.01617,-13.4375 13.4375,-13.4375c7.42133,0 13.4375,6.01617 13.4375,13.4375c-0.00889,7.41764 -6.01986,13.42861 -13.4375,13.4375zM104.8125,118.25c-4.4528,0 -8.0625,3.6097 -8.0625,8.0625c0,4.4528 3.6097,8.0625 8.0625,8.0625c4.4528,0 8.0625,-3.6097 8.0625,-8.0625c0,-4.4528 -3.6097,-8.0625 -8.0625,-8.0625z" fill="#ffffff"></path><path d="M67.1875,96.75c-7.42133,0 -13.4375,-6.01617 -13.4375,-13.4375c0,-7.42133 6.01617,-13.4375 13.4375,-13.4375c7.42133,0 13.4375,6.01617 13.4375,13.4375c-0.00889,7.41764 -6.01986,13.42861 -13.4375,13.4375zM67.1875,75.25c-4.4528,0 -8.0625,3.6097 -8.0625,8.0625c0,4.4528 3.6097,8.0625 8.0625,8.0625c4.4528,0 8.0625,-3.6097 8.0625,-8.0625c0,-4.4528 -3.6097,-8.0625 -8.0625,-8.0625z" fill="#ffffff"></path><path d="M51.84994,138.96256c1.04947,1.04915 2.75066,1.04915 3.80013,0l7.21325,-7.21325c-1.4835,-1.03737 -2.91683,-2.14015 -4.3,-3.30831l-6.71875,6.71875c-0.50394,0.5048 -0.78653,1.18923 -0.78552,1.90252c0.00101,0.71329 0.28553,1.39692 0.7909,1.90029z" fill="#bed1d6"></path></g></g></g></svg>