<svg version="1.1" xmlns="http://www.w3.org/2000/svg" xmlns:xlink="http://www.w3.org/1999/xlink" viewBox="0 0 172 172"><g fill="none" fill-rule="nonzero" stroke="none" stroke-width="1" stroke-linecap="butt" stroke-linejoin="miter" stroke-miterlimit="10" stroke-dasharray="" stroke-dashoffset="0" font-family="none" font-weight="none" font-size="none" text-anchor="none" style="mix-blend-mode: normal"><path d="M0,172v-172h172v172z" fill="none"></path><g fill="#000000"><path d="M85.7323,15.18542c-2.28437,0 -4.03125,1.74687 -4.03125,4.03125v9.00208c-7.25625,1.74687 -12.49792,8.33178 -12.49792,15.99115v10.75c0,5.9125 -2.41875,11.55625 -6.71875,15.45313c-8.33125,7.39063 -12.49583,18.00572 -11.68958,29.02447c1.34375,17.46875 15.4526,31.30833 33.05573,32.5177c0.80625,0 1.47707,0.13647 2.28332,0.13647c9.40625,0 18.27448,-3.6297 24.99323,-10.34845c6.58438,-6.85312 10.2146,-15.72082 10.2146,-25.12707c0,-9.94375 -4.30105,-19.61875 -11.82605,-26.20312c-4.56875,-4.16563 -7.25678,-9.9448 -7.25678,-15.8573v-10.34582c0,-7.79375 -5.37343,-14.24428 -12.4953,-15.99115v-9.00208c0,-2.28438 -1.74687,-4.03125 -4.03125,-4.03125zM85.59583,35.74322c2.01563,2.28437 3.35938,5.24168 3.35938,8.46668v8.46405h-11.68958v-8.46405c0,-4.56875 3.76145,-8.3323 8.3302,-8.46668zM76.7276,60.6026h18.27448c1.34375,5.9125 4.56927,11.42345 9.2724,15.72345c5.77813,5.10625 9.13855,12.49635 9.13855,20.2901c0,7.25625 -2.82187,14.1078 -8.0625,19.21405c-5.64375,5.50937 -13.17032,8.46615 -21.09845,7.92865c-13.4375,-0.80625 -24.45415,-11.55572 -25.39478,-24.99322c-0.67187,-8.6 2.68645,-16.66145 9.00208,-22.43958c4.56875,-4.03125 7.65885,-9.67657 8.86822,-15.72345zM29.5625,92.5849c-2.28438,0 -4.03125,1.74687 -4.03125,4.03125c0,2.28437 1.74687,4.03125 4.03125,4.03125h6.31458c2.28437,0 4.03125,-1.74688 4.03125,-4.03125c0,-2.28438 -1.74688,-4.03125 -4.03125,-4.03125zM136.12292,92.5849c-2.28437,0 -4.03125,1.74687 -4.03125,4.03125c0,2.28437 1.88125,4.03125 4.03125,4.03125h6.31458c2.28438,0 4.03125,-1.74688 4.03125,-4.03125c0,-2.28438 -1.74687,-4.03125 -4.03125,-4.03125zM50.57434,127.92395c-1.02461,0 -2.06497,0.40365 -2.87122,1.2099l-4.43542,4.43543c-1.6125,1.6125 -1.6125,4.16458 0,5.6427c0.80625,0.80625 1.88335,1.2099 2.82397,1.2099c1.075,0 2.0151,-0.40365 2.82135,-1.2099l4.4328,-4.4328c1.6125,-1.6125 1.6125,-4.1672 0,-5.64532c-0.73906,-0.80625 -1.74687,-1.2099 -2.77148,-1.2099zM121.42566,127.92395c-1.02461,0 -2.03242,0.40365 -2.77148,1.2099c-1.6125,1.6125 -1.6125,4.1672 0,5.64532l4.4328,4.4328c0.80625,0.80625 1.88073,1.2099 2.82135,1.2099c1.075,0 2.01772,-0.40365 2.82397,-1.2099c1.6125,-1.6125 1.6125,-4.16458 0,-5.6427l-4.43542,-4.43543c-0.80625,-0.80625 -1.84661,-1.2099 -2.87122,-1.2099zM86,142.57135c-2.28437,0 -4.03125,1.74687 -4.03125,4.03125v6.18073c0,2.28438 1.74688,4.03125 4.03125,4.03125c2.28437,0 4.03125,-1.74687 4.03125,-4.03125v-6.18073c0,-2.28438 -1.74688,-4.03125 -4.03125,-4.03125z"></path></g></g></svg>