<svg version="1.1" xmlns="http://www.w3.org/2000/svg" xmlns:xlink="http://www.w3.org/1999/xlink" viewBox="0 0 172 172"><defs><radialGradient cx="86" cy="90.03125" r="84.00856" gradientUnits="userSpaceOnUse" id="color-1"><stop offset="0" stop-color="#9ceeff"></stop><stop offset="0.642" stop-color="#c5f5ff"></stop><stop offset="1" stop-color="#dcf9ff"></stop></radialGradient><linearGradient x1="86" y1="182.40869" x2="86" y2="-14.921" gradientUnits="userSpaceOnUse" id="color-2"><stop offset="0" stop-color="#005ce2"></stop><stop offset="0.278" stop-color="#0080e8"></stop><stop offset="0.569" stop-color="#009ced"></stop><stop offset="0.82" stop-color="#00b0f1"></stop><stop offset="1" stop-color="#00b5f2"></stop></linearGradient><linearGradient x1="126.30713" y1="163.64187" x2="126.30713" y2="5.60613" gradientUnits="userSpaceOnUse" id="color-3"><stop offset="0" stop-color="#005ce2"></stop><stop offset="0.278" stop-color="#0080e8"></stop><stop offset="0.569" stop-color="#009ced"></stop><stop offset="0.82" stop-color="#00b0f1"></stop><stop offset="1" stop-color="#00b5f2"></stop></linearGradient><linearGradient x1="42.99731" y1="192.25031" x2="42.99731" y2="19.49513" gradientUnits="userSpaceOnUse" id="color-4"><stop offset="0" stop-color="#005ce2"></stop><stop offset="0.278" stop-color="#0080e8"></stop><stop offset="0.569" stop-color="#009ced"></stop><stop offset="0.82" stop-color="#00b0f1"></stop><stop offset="1" stop-color="#00b5f2"></stop></linearGradient><linearGradient x1="108.84375" y1="28.45256" x2="108.84375" y2="101.83206" gradientUnits="userSpaceOnUse" id="color-5"><stop offset="0" stop-color="#feaa53"></stop><stop offset="0.612" stop-color="#ffcd49"></stop><stop offset="1" stop-color="#ffde44"></stop></linearGradient><linearGradient x1="80.625" y1="61.8125" x2="80.625" y2="200.21875" gradientUnits="userSpaceOnUse" id="color-6"><stop offset="0" stop-color="#ffffff"></stop><stop offset="0.088" stop-color="#f8fdff"></stop><stop offset="0.216" stop-color="#e5f7fe"></stop><stop offset="0.369" stop-color="#c5eefc"></stop><stop offset="0.541" stop-color="#98e0fa"></stop><stop offset="0.728" stop-color="#60cff7"></stop><stop offset="0.926" stop-color="#1bbbf3"></stop><stop offset="1" stop-color="#00b3f2"></stop></linearGradient></defs><g fill="none" fill-rule="nonzero" stroke="none" stroke-width="1" stroke-linecap="butt" stroke-linejoin="miter" stroke-miterlimit="10" stroke-dasharray="" stroke-dashoffset="0" font-family="none" font-weight="none" font-size="none" text-anchor="none" style="mix-blend-mode: normal"><path d="M0,172v-172h172v172z" fill="none"></path><g><path d="M159.38756,112.875h-38.45006v-21.5h38.43662c5.09281,0 9.65888,-3.81356 9.92494,-8.901c0.28487,-5.42337 -4.03125,-9.9115 -9.39281,-9.9115h-38.96875v-13.4375h39.85025c5.61419,0 10.62906,-4.10381 11.16119,-9.69381c0.61275,-6.40969 -4.41288,-11.80619 -10.69894,-11.80619h-40.3125v-10.75h24.99912c5.09281,0 9.65888,-3.81356 9.92494,-8.901c0.28487,-5.42337 -4.03125,-9.9115 -9.39281,-9.9115h-120.40537c-5.09281,0 -9.65888,3.81356 -9.92494,8.901c-0.28487,5.42338 4.03125,9.9115 9.39281,9.9115h25.53125v10.75h-8.0625h-18.8125h-12.97525c-5.61419,0 -10.62906,4.10381 -11.16119,9.69381c-0.61275,6.40969 4.41287,11.80619 10.69894,11.80619h13.4375h18.8125h8.0625v13.4375h-38.43662c-5.09281,0 -9.65887,3.81356 -9.92494,8.901c-0.28488,5.42337 4.03125,9.9115 9.39281,9.9115h38.96875v16.125h-38.45006c-6.31562,0 -11.95669,4.61713 -12.556,10.90587c-0.688,7.21325 4.9665,13.28163 12.03731,13.28163h26.875c6.67844,0 12.09375,5.41531 12.09375,12.09375v2.6875c0,5.19494 -4.21131,9.40625 -9.40625,9.40625h-9.10794c-3.89956,0 -7.47394,2.63644 -8.20762,6.46613c-0.989,5.15194 2.93475,9.65887 7.90931,9.65887h107.20169c3.89956,0 7.47394,-2.63644 8.20763,-6.46613c0.989,-5.15194 -2.93475,-9.65887 -7.90931,-9.65887h-9.40625c-5.19494,0 -9.40625,-4.21131 -9.40625,-9.40625v0c0,-5.19494 4.21131,-9.40625 9.40625,-9.40625h29.5625c7.07081,0 12.72531,-6.06838 12.03731,-13.28163c-0.59931,-6.28875 -6.24037,-10.90587 -12.556,-10.90587z" fill="url(#color-1)"></path><path d="M48.375,21.5h75.25c14.84306,0 26.875,12.03194 26.875,26.875v75.25c0,14.84306 -12.03194,26.875 -26.875,26.875h-75.25c-14.84306,0 -26.875,-12.03194 -26.875,-26.875v-75.25c0,-14.84306 12.03194,-26.875 26.875,-26.875z" fill="url(#color-2)"></path><path d="M150.5,118.25v5.375c0,14.84306 -12.03194,26.875 -26.875,26.875h-14.78125c-3.93988,0 -7.07887,-3.37013 -6.69456,-7.38794c0.33594,-3.50719 3.5475,-6.04956 7.07081,-6.04956h18.43625c2.23063,0 4.03125,-1.80062 4.03125,-4.03125c0,-2.23063 -1.80062,-4.03125 -4.03125,-4.03125v0c-2.96969,0 -5.375,-2.40531 -5.375,-5.375v0c0,-2.96969 2.40531,-5.375 5.375,-5.375z" fill="url(#color-3)"></path><path d="M56.4375,37.625h-13.4375c-1.47812,0 -2.82187,0.59125 -3.78937,1.58563c-0.99437,0.9675 -1.58563,2.31125 -1.58563,3.78938c0,2.95625 2.41875,5.375 5.375,5.375h2.6875c3.25188,0 5.85875,2.9025 5.29437,6.28875c-0.43,2.63375 -2.9025,4.46125 -5.59,4.46125h-23.89187v-10.75c0,-14.835 12.04,-26.875 26.875,-26.875h7.76687c3.89688,0 7.47125,2.63375 8.19688,6.47688c0.99437,5.13313 -2.92937,9.64813 -7.90125,9.64813z" fill="url(#color-4)"></path><circle cx="40.5" cy="27.5" transform="scale(2.6875,2.6875)" r="8.5" fill="url(#color-5)"></circle><path d="M102.125,77.9375c-2.03713,0 -3.999,0.301 -5.86681,0.83044c-2.0855,-9.68844 -10.69356,-16.95544 -21.00819,-16.95544c-11.87337,0 -21.5,9.62663 -21.5,21.5c0,0.07256 0.01075,0.13975 0.01075,0.21231c-9.11869,1.30344 -16.13575,9.12138 -16.13575,18.60019c0,10.38988 8.42263,18.8125 18.8125,18.8125h45.6875c11.87337,0 21.5,-9.62663 21.5,-21.5c0,-11.87337 -9.62663,-21.5 -21.5,-21.5z" fill="url(#color-6)"></path></g></g></svg>