<svg version="1.1" xmlns="http://www.w3.org/2000/svg" xmlns:xlink="http://www.w3.org/1999/xlink" viewBox="0 0 172 172"><g fill="none" fill-rule="nonzero" stroke="none" stroke-width="1" stroke-linecap="butt" stroke-linejoin="miter" stroke-miterlimit="10" stroke-dasharray="" stroke-dashoffset="0" font-family="none" font-weight="none" font-size="none" text-anchor="none" style="mix-blend-mode: normal"><path d="M0,172v-172h172v172z" fill="none"></path><g><path d="M28.66667,35.83692h60.91667v60.91667h-60.91667z" fill="#ff9800"></path><path d="M14.3325,66.29245l44.79172,-44.79329l44.79329,44.79172l-44.79172,44.79329z" fill="#ff9800"></path><path d="M35.83333,66.29167c0,12.86775 10.42392,23.29167 23.29167,23.29167c12.86775,0 23.29167,-10.42392 23.29167,-23.29167c0,-12.86775 -10.42392,-23.29167 -23.29167,-23.29167c-12.86775,0 -23.29167,10.42392 -23.29167,23.29167" fill="#ffeb3b"></path><g fill="#bbdefb"><path d="M105.70833,60.91667c-16.82167,0 -30.45833,13.63666 -30.45833,30.45833c0,16.82167 13.63666,30.45833 30.45833,30.45833c16.82167,0 30.45833,-13.63666 30.45833,-30.45833c0,-16.82167 -13.63666,-30.45833 -30.45833,-30.45833z"></path><path d="M132.58333,96.36658c-13.85314,0 -25.08333,11.23019 -25.08333,25.08333c0,13.85314 11.23019,25.08333 25.08333,25.08333c13.85314,0 25.08333,-11.23019 25.08333,-25.08333c0,-13.85314 -11.23019,-25.08333 -25.08333,-25.08333zM39.41667,96.75c-13.85314,0 -25.08333,11.23019 -25.08333,25.08333c0,13.85314 11.23019,25.08333 25.08333,25.08333c13.85314,0 25.08333,-11.23019 25.08333,-25.08333c0,-13.85314 -11.23019,-25.08333 -25.08333,-25.08333z"></path><path d="M62.70833,71.66667c-12.86363,0 -23.29167,10.42803 -23.29167,23.29167c0,12.86363 10.42803,23.29167 23.29167,23.29167c12.86363,0 23.29167,-10.42803 23.29167,-23.29167c0,-12.86363 -10.42803,-23.29167 -23.29167,-23.29167z"></path><path d="M89.58333,89.19992c-13.85314,0 -25.08333,11.23019 -25.08333,25.08333c0,13.85314 11.23019,25.08333 25.08333,25.08333c13.85314,0 25.08333,-11.23019 25.08333,-25.08333c0,-13.85314 -11.23019,-25.08333 -25.08333,-25.08333z"></path><path d="M25.08333,132.58333c0,7.91558 6.41775,14.33333 14.33333,14.33333h89.58333c7.91558,0 14.33333,-6.41775 14.33333,-14.33333v-3.58333c0,-7.91558 -6.41775,-14.33333 -14.33333,-14.33333h-89.58333c-7.91558,0 -14.33333,6.41775 -14.33333,14.33333z"></path></g></g></g></svg>