<svg version="1.1" xmlns="http://www.w3.org/2000/svg" xmlns:xlink="http://www.w3.org/1999/xlink" viewBox="0 0 172 172"><defs><radialGradient cx="71.32983" cy="89.139" r="68.11558" gradientUnits="userSpaceOnUse" id="color-1"><stop offset="0.313" stop-color="#fcfcfc"></stop><stop offset="0.465" stop-color="#eff0f1"></stop><stop offset="0.741" stop-color="#ced1d3"></stop><stop offset="1" stop-color="#aaafb3"></stop></radialGradient><radialGradient cx="56.29417" cy="47.47917" r="12.384" gradientUnits="userSpaceOnUse" id="color-2"><stop offset="0.313" stop-color="#9da2a6" stop-opacity="0"></stop><stop offset="1" stop-color="#9da2a6"></stop></radialGradient><radialGradient cx="37.10542" cy="66.73958" r="6.192" gradientUnits="userSpaceOnUse" id="color-3"><stop offset="0.313" stop-color="#9da2a6" stop-opacity="0"></stop><stop offset="1" stop-color="#9da2a6"></stop></radialGradient><linearGradient x1="79.95492" y1="57.61642" x2="95.38117" y2="148.522" gradientUnits="userSpaceOnUse" id="color-4"><stop offset="0" stop-color="#bac0ff"></stop><stop offset="0.398" stop-color="#8a91e7"></stop><stop offset="0.796" stop-color="#6069d1"></stop><stop offset="1" stop-color="#5059c9"></stop></linearGradient></defs><g fill="none" fill-rule="nonzero" stroke="none" stroke-width="1" stroke-linecap="butt" stroke-linejoin="miter" stroke-miterlimit="10" stroke-dasharray="" stroke-dashoffset="0" font-family="none" font-weight="none" font-size="none" text-anchor="none" style="mix-blend-mode: normal"><path d="M0,172v-172h172v172z" fill="none"></path><g><path d="M57.33333,25.08333c-21.76875,0 -39.41667,17.64792 -39.41667,39.41667c0,21.76875 17.64792,39.41667 39.41667,39.41667c21.76875,0 39.41667,-17.64792 39.41667,-39.41667c0,-21.76875 -17.64792,-39.41667 -39.41667,-39.41667z" fill="url(#color-1)"></path><path d="M53.75,35.83333c-3.95958,0 -7.16667,3.20708 -7.16667,7.16667c0,3.95958 3.20708,7.16667 7.16667,7.16667c3.95958,0 7.16667,-3.20708 7.16667,-7.16667c0,-3.95958 -3.20708,-7.16667 -7.16667,-7.16667z" fill="url(#color-2)"></path><path d="M35.83333,60.91667c-1.978,0 -3.58333,1.60533 -3.58333,3.58333c0,1.978 1.60533,3.58333 3.58333,3.58333c1.978,0 3.58333,-1.60533 3.58333,-3.58333c0,-1.978 -1.60533,-3.58333 -3.58333,-3.58333z" fill="url(#color-3)"></path><path d="M125.41667,75.25c-1.18608,0 -2.35425,0.0645 -3.51167,0.17558c-8.16642,-10.96142 -21.18467,-18.09225 -35.905,-18.09225c-20.47158,0 -37.69667,13.74925 -43.043,32.50442c-14.11475,1.7845 -25.04033,13.81017 -25.04033,28.41225c0,15.83117 12.8355,28.66667 28.66667,28.66667c6.5145,0 72.05008,0 78.83333,0c19.79075,0 35.83333,-16.04258 35.83333,-35.83333c0,-19.79075 -16.04258,-35.83333 -35.83333,-35.83333z" fill="url(#color-4)"></path></g></g></svg>