<svg version="1.1" xmlns="http://www.w3.org/2000/svg" xmlns:xlink="http://www.w3.org/1999/xlink" viewBox="0 0 172 172"><g fill="none" fill-rule="nonzero" stroke="none" stroke-width="1" stroke-linecap="butt" stroke-linejoin="miter" stroke-miterlimit="10" stroke-dasharray="" stroke-dashoffset="0" font-family="none" font-weight="none" font-size="none" text-anchor="none" style="mix-blend-mode: normal"><path d="M0,172v-172h172v172z" fill="none"></path><g fill="#000000"><path d="M68.8,13.76c-18.89312,0 -34.4,15.50688 -34.4,34.4v61.06l-9.89,-9.89l-9.675,9.7825l26.445,26.445l26.445,-26.445l-9.675,-9.675l-9.89,9.7825v-61.06c0,-11.38156 9.25844,-20.64 20.64,-20.64h37.84v-13.76zM130.72,36.4425l-26.5525,26.5525l9.7825,9.675l9.89,-9.89v61.06c0,11.38156 -9.25844,20.64 -20.64,20.64h-37.84v13.76h37.84c18.89313,0 34.4,-15.50687 34.4,-34.4v-61.06l9.89,9.89l9.675,-9.7825z"></path></g></g></svg>