<svg version="1.1" xmlns="http://www.w3.org/2000/svg" xmlns:xlink="http://www.w3.org/1999/xlink" viewBox="0 0 172 172"><g fill="none" fill-rule="nonzero" stroke="none" stroke-width="1" stroke-linecap="butt" stroke-linejoin="miter" stroke-miterlimit="10" stroke-dasharray="" stroke-dashoffset="0" font-family="none" font-weight="none" font-size="none" text-anchor="none" style="mix-blend-mode: normal"><path d="M0,172v-172h172v172z" fill="none"></path><g><g><circle cx="32" cy="32" transform="scale(2.6875,2.6875)" r="20" fill="#ffb145"></circle><path d="M96.75,118.25c-16.519,0.05816 -32.14069,-7.50921 -42.3349,-20.50763c-10.19421,-12.99842 -13.82032,-29.9735 -9.82679,-46.00262c-14.11139,17.03474 -16.34096,40.97691 -5.61759,60.32434c10.72337,19.34743 32.20804,30.14592 54.13247,27.20771c21.92443,-2.93821 39.80773,-19.0126 45.0585,-40.50081c-10.20178,12.35217 -25.39133,19.49694 -41.41169,19.479z" fill="#fca124"></path><path d="M86,26.875c-1.48427,0 -2.6875,-1.20323 -2.6875,-2.6875v-18.8125c0,-1.48427 1.20323,-2.6875 2.6875,-2.6875c1.48427,0 2.6875,1.20323 2.6875,2.6875v18.8125c0,1.48427 -1.20323,2.6875 -2.6875,2.6875z" fill="#ffdc78"></path><path d="M86,169.3125c-1.48427,0 -2.6875,-1.20323 -2.6875,-2.6875v-18.8125c0,-1.48427 1.20323,-2.6875 2.6875,-2.6875c1.48427,0 2.6875,1.20323 2.6875,2.6875v18.8125c0,1.48427 -1.20323,2.6875 -2.6875,2.6875z" fill="#ffdc78"></path><path d="M166.625,88.6875h-18.8125c-1.48427,0 -2.6875,-1.20323 -2.6875,-2.6875c0,-1.48427 1.20323,-2.6875 2.6875,-2.6875h18.8125c1.48427,0 2.6875,1.20323 2.6875,2.6875c0,1.48427 -1.20323,2.6875 -2.6875,2.6875z" fill="#ffdc78"></path><path d="M24.1875,88.6875h-18.8125c-1.48427,0 -2.6875,-1.20323 -2.6875,-2.6875c0,-1.48427 1.20323,-2.6875 2.6875,-2.6875h18.8125c1.48427,0 2.6875,1.20323 2.6875,2.6875c0,1.48427 -1.20323,2.6875 -2.6875,2.6875z" fill="#ffdc78"></path><path d="M144.91,147.5975c-0.71271,-0.00015 -1.39618,-0.2834 -1.90006,-0.78744l-15.2005,-15.2005c-0.69863,-0.67476 -0.97882,-1.67398 -0.73287,-2.61361c0.24595,-0.93963 0.97976,-1.67344 1.91939,-1.91939c0.93963,-0.24595 1.93885,0.03424 2.61361,0.73287l15.2005,15.2005c0.76838,0.76861 0.9982,1.92435 0.58232,2.92845c-0.41587,1.0041 -1.39557,1.65888 -2.48238,1.65912z" fill="#ffdc78"></path><path d="M42.2905,44.978c-0.71271,-0.00015 -1.39618,-0.2834 -1.90006,-0.78744l-15.2005,-15.2005c-1.01849,-1.05452 -1.00392,-2.73073 0.03274,-3.76739c1.03666,-1.03666 2.71287,-1.05123 3.76739,-0.03274l15.2005,15.2005c0.76838,0.76861 0.9982,1.92435 0.58232,2.92845c-0.41587,1.0041 -1.39557,1.65888 -2.48238,1.65912z" fill="#ffdc78"></path><path d="M27.09,147.5975c-1.08681,-0.00023 -2.06651,-0.65502 -2.48238,-1.65912c-0.41587,-1.0041 -0.18606,-2.15984 0.58232,-2.92845l15.2005,-15.2005c0.67476,-0.69863 1.67398,-0.97882 2.61361,-0.73287c0.93963,0.24595 1.67344,0.97976 1.91939,1.91939c0.24595,0.93963 -0.03424,1.93885 -0.73287,2.61361l-15.2005,15.2005c-0.50389,0.50404 -1.18735,0.78729 -1.90006,0.78744z" fill="#ffdc78"></path><path d="M129.7095,44.978c-1.08681,-0.00023 -2.06651,-0.65502 -2.48238,-1.65912c-0.41587,-1.0041 -0.18606,-2.15984 0.58232,-2.92845l15.2005,-15.2005c1.05452,-1.01849 2.73073,-1.00392 3.76739,0.03274c1.03666,1.03666 1.05123,2.71287 0.03274,3.76739l-15.2005,15.2005c-0.50389,0.50404 -1.18735,0.78729 -1.90006,0.78744z" fill="#ffdc78"></path></g></g></g></svg>