<svg version="1.1" xmlns="http://www.w3.org/2000/svg" xmlns:xlink="http://www.w3.org/1999/xlink" viewBox="0 0 172 172"><g fill="none" fill-rule="nonzero" stroke="none" stroke-width="1" stroke-linecap="butt" stroke-linejoin="miter" stroke-miterlimit="10" stroke-dasharray="" stroke-dashoffset="0" font-family="none" font-weight="none" font-size="none" text-anchor="none" style="mix-blend-mode: normal"><path d="M0,172v-172h172v172z" fill="none"></path><g fill="#000000"><path d="M86,0c-5.2675,0 -10.27969,1.14219 -14.19,3.9775c-3.91031,2.83531 -6.45,7.53844 -6.45,13.2225v16.125c-0.20156,0.67188 -0.20156,1.37063 0,2.0425v59.8775c-12.28187,7.14875 -20.64,20.26375 -20.64,35.475c0,22.76313 18.51688,41.28 41.28,41.28c22.76313,0 41.28,-18.51687 41.28,-41.28c0,-15.21125 -8.35812,-28.32625 -20.64,-35.475v-2.365h10.32c1.23625,0.01344 2.39188,-0.63156 3.02344,-1.70656c0.61813,-1.075 0.61813,-2.39187 0,-3.46687c-0.63156,-1.075 -1.78719,-1.72 -3.02344,-1.70656h-10.32v-6.88h10.32c1.23625,0.01344 2.39188,-0.63156 3.02344,-1.70656c0.61813,-1.075 0.61813,-2.39187 0,-3.46687c-0.63156,-1.075 -1.78719,-1.72 -3.02344,-1.70656h-10.32v-6.88h10.32c1.23625,0.01344 2.39188,-0.63156 3.02344,-1.70656c0.61813,-1.075 0.61813,-2.39187 0,-3.46687c-0.63156,-1.075 -1.78719,-1.72 -3.02344,-1.70656h-10.32v-6.88h10.32c1.23625,0.01344 2.39188,-0.63156 3.02344,-1.70656c0.61813,-1.075 0.61813,-2.39187 0,-3.46687c-0.63156,-1.075 -1.78719,-1.72 -3.02344,-1.70656h-10.32v-6.88h10.32c1.23625,0.01344 2.39188,-0.63156 3.02344,-1.70656c0.61813,-1.075 0.61813,-2.39187 0,-3.46687c-0.63156,-1.075 -1.78719,-1.72 -3.02344,-1.70656h-10.32v-13.76c0,-5.68406 -2.53969,-10.38719 -6.45,-13.2225c-3.91031,-2.83531 -8.9225,-3.9775 -14.19,-3.9775zM86,6.88c4.23281,0 7.79375,1.02125 10.105,2.6875c2.31125,1.66625 3.655,3.81625 3.655,7.6325v13.76h-27.52v-13.76c0,-3.81625 1.34375,-5.96625 3.655,-7.6325c2.31125,-1.66625 5.87219,-2.6875 10.105,-2.6875zM72.24,37.84h27.52v9.245c-0.20156,0.67188 -0.20156,1.37063 0,2.0425v11.18c-0.45687,0.95406 -0.45687,2.05594 0,3.01v10.75c-0.45687,0.95406 -0.45687,2.05594 0,3.01v10.75c-0.45687,0.95406 -0.45687,2.05594 0,3.01v6.235c0.01344,1.26313 0.71219,2.41875 1.8275,3.01c11.12625,5.6975 18.8125,17.25375 18.8125,30.6375c0,19.04094 -15.35906,34.4 -34.4,34.4c-19.04094,0 -34.4,-15.35906 -34.4,-34.4c0,-13.38375 7.68625,-24.94 18.8125,-30.6375c1.11531,-0.59125 1.81406,-1.74687 1.8275,-3.01z"></path></g></g></svg>