<svg version="1.1" xmlns="http://www.w3.org/2000/svg" xmlns:xlink="http://www.w3.org/1999/xlink" viewBox="0 0 172 172"><g fill="none" fill-rule="nonzero" stroke="none" stroke-width="1" stroke-linecap="butt" stroke-linejoin="miter" stroke-miterlimit="10" stroke-dasharray="" stroke-dashoffset="0" font-family="none" font-weight="none" font-size="none" text-anchor="none" style="mix-blend-mode: normal"><path d="M0,172v-172h172v172z" fill="none"></path><g><g><path d="M64.5,109.1125c12.64097,7.29827 18.80397,22.17707 15.02611,36.27623c-3.77786,14.09917 -16.55457,23.90309 -31.15111,23.90309c-14.59653,0 -27.37325,-9.80392 -31.15111,-23.90309c-3.77786,-14.09917 2.38514,-28.97797 15.02611,-36.27623v-90.3c0,-8.90559 7.21941,-16.125 16.125,-16.125c8.90007,0.01332 16.11168,7.22493 16.125,16.125z" fill="#ffb145"></path><path d="M48.375,169.3125c-11.10656,-0.00455 -21.42994,-5.72146 -27.32696,-15.1332c-5.89701,-9.41174 -6.53849,-21.19494 -1.69804,-31.19123c1.29725,-2.67168 4.5147,-3.78587 7.18637,-2.48863c2.67168,1.29725 3.78587,4.5147 2.48863,7.18637c-1.42321,2.9204 -2.15868,6.12796 -2.15,9.37669c0.00722,8.74054 5.30519,16.60678 13.40204,19.89889c8.09685,3.29211 17.38087,1.35479 23.48538,-4.90076c6.10451,-6.25556 7.81438,-15.58414 4.32539,-23.59813c-0.81879,-1.76818 -0.61651,-3.84101 0.52868,-5.41753c1.14519,-1.57652 3.05391,-2.4098 4.98861,-2.17784c1.9347,0.23196 3.59235,1.49282 4.3324,3.29537c4.35174,9.9711 3.3829,21.46422 -2.57667,30.5661c-5.95956,9.10188 -16.10647,14.58555 -26.98583,14.5839z" fill="#fc9508"></path><rect x="12" y="6" transform="scale(2.6875,2.6875)" width="3" height="33" rx="1.5" ry="0" fill="#fc9508"></rect><rect x="21" y="6" transform="scale(2.6875,2.6875)" width="3" height="33" rx="1.5" ry="0" fill="#fc9508"></rect><rect x="18" y="11" transform="scale(2.6875,2.6875)" width="6" height="2" fill="#a66205"></rect><rect x="18" y="17" transform="scale(2.6875,2.6875)" width="6" height="2" fill="#a66205"></rect><rect x="18" y="23" transform="scale(2.6875,2.6875)" width="6" height="2" fill="#a66205"></rect><rect x="18" y="29" transform="scale(2.6875,2.6875)" width="6" height="2" fill="#a66205"></rect><rect x="18" y="35" transform="scale(2.6875,2.6875)" width="6" height="2" fill="#a66205"></rect><path d="M69.875,139.75c-1.48427,0 -2.6875,-1.20323 -2.6875,-2.6875c-0.00341,-6.84204 -3.71765,-13.14391 -9.70188,-16.46094c-1.29873,-0.71987 -1.76799,-2.35627 -1.04812,-3.655c0.71987,-1.29873 2.35627,-1.76799 3.655,-1.04812c7.69169,4.26661 12.46524,12.36827 12.47,21.16406c0,1.48427 -1.20323,2.6875 -2.6875,2.6875z" fill="#f7f7fc"></path><path d="M66.99669,150.5c-0.95966,-0.00098 -1.84597,-0.51361 -2.32538,-1.34494c-0.4794,-0.83134 -0.47914,-1.85522 0.00069,-2.68631c0.43643,-0.75772 0.82074,-1.54429 1.15025,-2.35425c0.35122,-0.90385 1.16212,-1.5484 2.1219,-1.68664c0.95979,-0.13823 1.91961,0.25129 2.51162,1.01929c0.59201,0.768 0.72439,1.79536 0.34641,2.68835c-0.41703,1.03991 -0.90646,2.0493 -1.46469,3.02075c-0.48246,0.83567 -1.37589,1.34854 -2.34081,1.34375z" fill="#f7f7fc"></path><rect x="21" y="11" transform="scale(2.6875,2.6875)" width="3" height="2" fill="#804b04"></rect><rect x="21" y="17" transform="scale(2.6875,2.6875)" width="3" height="2" fill="#804b04"></rect><rect x="21" y="23" transform="scale(2.6875,2.6875)" width="3" height="2" fill="#804b04"></rect><rect x="21" y="29" transform="scale(2.6875,2.6875)" width="3" height="2" fill="#804b04"></rect><rect x="21" y="35" transform="scale(2.6875,2.6875)" width="3" height="2" fill="#804b04"></rect><circle cx="55" cy="4" transform="scale(2.6875,2.6875)" r="3" fill="#ffb145"></circle><path d="M139.75,77.9375v5.375c0,11.87412 -9.62588,21.5 -21.5,21.5h-13.4375c-13.35839,0 -24.1875,-10.82911 -24.1875,-24.1875v-37.625c0,-13.35839 10.82911,-24.1875 24.1875,-24.1875h13.4375c11.87412,0 21.5,9.62588 21.5,21.5v5.375h-10.75v-5.375c0,-5.93706 -4.81294,-10.75 -10.75,-10.75h-10.75c-8.90559,0 -16.125,7.21941 -16.125,16.125v32.25c0,8.90559 7.21941,16.125 16.125,16.125h10.75c5.93706,0 10.75,-4.81294 10.75,-10.75v-5.375z" fill="#ffb145"></path></g></g></g></svg>