<svg version="1.1" xmlns="http://www.w3.org/2000/svg" xmlns:xlink="http://www.w3.org/1999/xlink" viewBox="0 0 172 172"><g fill="none" fill-rule="nonzero" stroke="none" stroke-width="1" stroke-linecap="butt" stroke-linejoin="miter" stroke-miterlimit="10" stroke-dasharray="" stroke-dashoffset="0" font-family="none" font-weight="none" font-size="none" text-anchor="none" style="mix-blend-mode: normal"><path d="M0,172v-172h172v172z" fill="none"></path><g fill="#000000"><path d="M22.93333,17.2l-11.46667,11.46667l11.46667,22.93333l17.2,5.73333l20.06667,20.06667l11.46667,-11.46667l-20.06667,-20.06667l-5.73333,-17.2zM126.51406,17.25599c-9.50891,-0.37598 -19.13079,3.05488 -26.39349,10.31328c-9.38011,9.38011 -10.21993,20.66193 -5.55417,31.27578l-66.59401,66.59401c-6.71947,6.71947 -6.71947,17.60241 0,24.32188c6.71947,6.71947 17.60241,6.71947 24.32188,0l66.59401,-66.59401c10.61316,4.66407 21.89638,3.81793 31.27578,-5.56536c9.6836,-9.6836 12.55439,-23.56561 8.66719,-35.76614l-21.24245,21.25364l-18.35339,-4.59114l-4.59114,-18.35339l21.25364,-21.24245c-3.05157,-0.97037 -6.21422,-1.52077 -9.38386,-1.64609zM117.65651,101.11719l-21.57839,21.57839l27.62526,27.63646c5.96267,5.96267 15.63265,5.96267 21.58958,0c5.96267,-5.96267 5.96267,-15.62692 0,-21.58958zM40.13333,131.86667c3.1648,0 5.73333,2.56853 5.73333,5.73333c0,3.1648 -2.56853,5.73333 -5.73333,5.73333c-3.1648,0 -5.73333,-2.56853 -5.73333,-5.73333c0,-3.1648 2.56853,-5.73333 5.73333,-5.73333z"></path></g></g></svg>